<svg width="159" height="159" viewBox="0 0 159 159" fill="none" xmlns="http://www.w3.org/2000/svg">
<path d="M0.200012 80.256C0.200012 57.216 8.26401 38.208 24.392 23.232C40.52 8.25601 58.952 0.768005 79.688 0.768005C100.424 0.768005 118.76 8.25601 134.696 23.232C150.632 38.016 158.6 56.928 158.6 79.968C158.6 95.904 154.472 110.112 146.216 122.592C137.96 134.88 127.88 144 115.976 149.952C104.264 155.712 92.072 158.592 79.4 158.592C66.728 158.592 54.44 155.52 42.536 149.376C30.632 143.04 20.552 133.824 12.296 121.728C4.23201 109.44 0.200012 95.616 0.200012 80.256ZM60.392 100.992C66.536 105.6 72.776 107.904 79.112 107.904C85.448 107.904 91.784 105.504 98.12 100.704C104.456 95.904 107.624 88.8 107.624 79.392C107.624 69.984 104.648 62.976 98.696 58.368C92.744 53.76 86.312 51.456 79.4 51.456C72.488 51.456 66.056 53.856 60.104 58.656C54.152 63.456 51.176 70.56 51.176 79.968C51.176 89.184 54.248 96.192 60.392 100.992Z" fill="url(#paint0_linear_11_7)"/>
<defs>
<linearGradient id="paint0_linear_11_7" x1="-7" y1="-11" x2="155.983" y2="177.176" gradientUnits="userSpaceOnUse">
<stop stop-color="#006D77"/>
<stop offset="1" stop-color="#83C5BE"/>
</linearGradient>
</defs>
</svg>
