<svg width="155" height="157" viewBox="0 0 155 157" fill="none" xmlns="http://www.w3.org/2000/svg">
<path d="M112.64 78.968L144.608 111.224C151.52 118.136 154.976 124.088 154.976 129.08C154.976 133.88 151.52 139.736 144.608 146.648C137.696 153.368 131.84 156.728 127.04 156.728C122.24 156.728 116.384 153.272 109.472 146.36L77.792 114.392L45.824 146.36C38.912 153.272 33.056 156.728 28.256 156.728C23.648 156.728 17.792 153.368 10.688 146.648C3.77601 139.736 0.320007 133.88 0.320007 129.08C0.320007 124.088 3.77601 118.136 10.688 111.224L42.656 78.968L10.688 46.712C3.77601 39.8 0.320007 33.944 0.320007 29.144C0.320007 24.152 3.77601 18.2 10.688 11.288C17.792 4.37598 23.648 0.919983 28.256 0.919983C33.056 0.919983 38.912 4.37598 45.824 11.288L77.792 43.544L109.472 11.288C116.384 4.37598 122.24 0.919983 127.04 0.919983C131.84 0.919983 137.696 4.37598 144.608 11.288C151.52 18.2 154.976 24.152 154.976 29.144C154.976 33.944 151.52 39.8 144.608 46.712L112.64 78.968Z" fill="url(#paint0_linear_11_6)"/>
<defs>
<linearGradient id="paint0_linear_11_6" x1="-4" y1="-12" x2="160" y2="167.5" gradientUnits="userSpaceOnUse">
<stop stop-color="#E29578"/>
<stop offset="1" stop-color="#FFDDD2"/>
</linearGradient>
</defs>
</svg>
